<?xml version="1.0" encoding="UTF-8" standalone="no"?><svg xmlns="http://www.w3.org/2000/svg" xmlns:xlink="http://www.w3.org/1999/xlink" clip-rule="evenodd" stroke-miterlimit="4.00" viewBox="0 0 1024 768"><desc>SVG generated by Keynote</desc><defs></defs><g transform="matrix(1.00, 0.00, -0.00, -1.00, 0.0, 768.0)"><path d="M 0.0 768.0 L 1024.0 768.0 L 1024.0 0.0 L 0.0 0.0 Z M 0.0 768.0 " fill="#FEFFFF"></path><image xlink:href="../../06E05030-8FF7-4C42-9026-72110982F3C7/assets/A6106F15B3ED95BD759036DA285BEA46.jpeg" width="198.00" height="310.00" transform="matrix(1.00, 0.00, -0.00, -1.00, 9.0, 714.0)"></image><image xlink:href="../../06E05030-8FF7-4C42-9026-72110982F3C7/assets/C62F510494010509CAAA0B95A866A099.jpeg" width="198.00" height="310.00" transform="matrix(1.00, 0.00, -0.00, -1.00, 615.0, 380.0)"></image><image xlink:href="../../06E05030-8FF7-4C42-9026-72110982F3C7/assets/B5EDEC74AC48A3ECBC7F80E033991A0A.jpeg" width="198.00" height="310.00" transform="matrix(1.00, 0.00, -0.00, -1.00, 817.0, 380.0)"></image><image xlink:href="../../06E05030-8FF7-4C42-9026-72110982F3C7/assets/1443FD512763D6C3D551CFADB5397C1F.jpeg" width="198.00" height="310.00" transform="matrix(1.00, 0.00, -0.00, -1.00, 414.0, 714.0)"></image><image xlink:href="../../06E05030-8FF7-4C42-9026-72110982F3C7/assets/F82CF346D03E47A5D5BFA26DF39352E6.jpeg" width="198.00" height="310.00" transform="matrix(1.00, 0.00, -0.00, -1.00, 211.0, 380.0)"></image><image xlink:href="../../06E05030-8FF7-4C42-9026-72110982F3C7/assets/9C28864D56140A0B74740B761472468A.jpeg" width="198.00" height="310.00" transform="matrix(1.00, 0.00, -0.00, -1.00, 615.0, 714.0)"></image><image xlink:href="../../06E05030-8FF7-4C42-9026-72110982F3C7/assets/CD91FB31C21129BF33CB9075B8B8A7A8.jpeg" width="198.00" height="310.00" transform="matrix(1.00, 0.00, -0.00, -1.00, 9.0, 380.0)"></image><image xlink:href="../../06E05030-8FF7-4C42-9026-72110982F3C7/assets/E6E2DF83E9EF1B5F6CCB943C683395BB.jpeg" width="198.00" height="310.00" transform="matrix(1.00, 0.00, -0.00, -1.00, 413.0, 380.0)"></image><image xlink:href="../../06E05030-8FF7-4C42-9026-72110982F3C7/assets/80391EC124ABF6B6F616454073EC3BE5.jpeg" width="198.00" height="310.00" transform="matrix(1.00, 0.00, -0.00, -1.00, 212.0, 714.0)"></image><image xlink:href="../../06E05030-8FF7-4C42-9026-72110982F3C7/assets/A38DB41156508ACB7901CAD229A2C548.jpeg" width="198.00" height="310.00" transform="matrix(1.00, 0.00, -0.00, -1.00, 816.0, 714.0)"></image></g></svg>